<svg xmlns="http://www.w3.org/2000/svg" viewBox="0 0 274.13 152.57"><defs><style>.cls-1{fill:#871e28;}</style></defs><title>Konferencia</title><g id="Layer_2" data-name="Layer 2"><g id="Layer_5" data-name="Layer 5"><path class="cls-1" d="M98.85,111.13a.37.37,0,0,1,.2.28.36.36,0,0,1-.2.28L93.1,115a1,1,0,0,1-.48.12,1,1,0,0,1-.49-.12L80.2,108.14a6.5,6.5,0,0,0-3-.87,5.19,5.19,0,0,0-2.87.64c-.84.49-1.22,1-1.15,1.67s.57,1.23,1.52,1.78l11.93,6.89c.13.08.21.17.21.28a.34.34,0,0,1-.2.28l-5.75,3.34a.9.9,0,0,1-.48.12.94.94,0,0,1-.49-.12L59.8,110.56a.35.35,0,0,1-.21-.28c0-.11.08-.2.21-.28l5.74-3.34a.92.92,0,0,1,.48-.12.94.94,0,0,1,.49.12l1.5.87a.36.36,0,0,0,.26.07l0-.14q-.85-2.28,2.45-4.21A14.33,14.33,0,0,1,78,101.4a14.68,14.68,0,0,1,7.49,2Z"/><path class="cls-1" d="M66.88,122.06a15,15,0,0,0-3.13-2.33,21.63,21.63,0,0,0-4.48-1.93,21.86,21.86,0,0,0-8.42-.88A18.79,18.79,0,0,0,43,119.38q-3.6,2.09-4.32,4.61c-.48,1.67.05,3.31,1.57,4.9a14,14,0,0,0,3.42,2.59,20.4,20.4,0,0,0,4.15,1.83,21.44,21.44,0,0,0,8.7,1.09,19,19,0,0,0,8.14-2.47q3.67-2.13,4.23-4.77T66.88,122.06Zm-8,6.53a5.33,5.33,0,0,1-2.71.7,9.16,9.16,0,0,1-3.16-.53,16.59,16.59,0,0,1-2.57-1.2,10.73,10.73,0,0,1-2.11-1.51c-1.29-1.3-1.14-2.4.42-3.31a5.45,5.45,0,0,1,2.62-.73,8.67,8.67,0,0,1,3.06.5,14.42,14.42,0,0,1,2.64,1.19,11.77,11.77,0,0,1,2.08,1.49,2.62,2.62,0,0,1,.92,1.84C60.06,127.62,59.67,128.13,58.88,128.59Z"/><path class="cls-1" d="M50.91,139.22c.19.11.15.24-.12.4l-6.43,3.74a1.31,1.31,0,0,1-.94.16l-17.21-2.58c-.25-.05-.35,0-.29.16L26.7,144a.66.66,0,0,0,.17.19l7.57,4.37a.39.39,0,0,1,.21.29.38.38,0,0,1-.2.28l-5.75,3.33a1,1,0,0,1-.48.12.94.94,0,0,1-.49-.12L.21,136.56c-.14-.08-.21-.17-.21-.28A.32.32,0,0,1,.2,136l5.74-3.34a1.06,1.06,0,0,1,1,0l10.58,6.11.22,0,.11-.13-2.71-11a.48.48,0,0,1,.29-.49L22,123.35a.66.66,0,0,1,.69-.07.57.57,0,0,1,.21.26l3,11.87a.32.32,0,0,0,.14.14l.11,0,24.41,3.5Z"/><path class="cls-1" d="M103,90.7a.34.34,0,0,1,.2.28.32.32,0,0,1-.19.28l-3.81,2.22c-.13.07-.14.15,0,.23l14.87,8.58a.33.33,0,0,1,.2.28c0,.11-.07.2-.21.28l-5.74,3.34a.92.92,0,0,1-.48.12.91.91,0,0,1-.49-.12L92.47,97.61a.35.35,0,0,0-.39,0l-2.27,1.32a1.15,1.15,0,0,1-1,0L84.27,96.3c-.14-.08-.21-.18-.2-.29s.06-.21.2-.29l2.26-1.31c.14-.08.14-.15,0-.23l-1.1-.63a6.39,6.39,0,0,1-2.91-2.68,2.44,2.44,0,0,1,.79-2.68A18.89,18.89,0,0,1,87.94,85l1.66-1a1,1,0,0,1,.49-.11,1,1,0,0,1,.49.12l3.7,2.14a.35.35,0,0,1,.21.28.41.41,0,0,1-.2.28l-1.59.92c-.67.45-1,.85-1,1.19s.36.72,1.07,1.13l.49.28a.35.35,0,0,0,.39,0l3.81-2.21a1,1,0,0,1,.49-.11,1,1,0,0,1,.49.12Z"/><path class="cls-1" d="M142.35,62.84a.41.41,0,0,1,.13.1l4.74,3.8c.29.2.2.37-.29.5a9.16,9.16,0,0,0-1.53.7,5.94,5.94,0,0,0-1,.66,2.45,2.45,0,0,0-1.14,1.8c0,.64.39,1.23,1.29,1.75l10.71,6.18a.39.39,0,0,1,.21.28.36.36,0,0,1-.21.28l-5.75,3.34a.9.9,0,0,1-.48.12.85.85,0,0,1-.48-.12L128.49,70.64c-.14-.08-.21-.16-.21-.28s.07-.2.21-.28l5.74-3.34a1,1,0,0,1,.49-.12,1.06,1.06,0,0,1,.48.12l1.3.75.25.05,0-.12c-.37-1.45.32-2.68,2.05-3.68a7.4,7.4,0,0,1,2.78-1A1.15,1.15,0,0,1,142.35,62.84Z"/><path class="cls-1" d="M139.23,84.54a.73.73,0,0,0-.47-.09l-6.71-.26a.79.79,0,0,0-.49.09.27.27,0,0,0-.15.33c.14,1.2-.65,2.3-2.35,3.29a8.67,8.67,0,0,1-2.9,1.08,8.84,8.84,0,0,1-2.85,0,11.47,11.47,0,0,1-1.58-.45l-.1-.1.09-.14,12.34-7.17c.32-.18.34-.38,0-.58l-1-.61a20.49,20.49,0,0,0-2.33-1.18,23.75,23.75,0,0,0-6.37-1.69,22.36,22.36,0,0,0-6.64.13,17.67,17.67,0,0,0-5.93,2.1c-2.22,1.29-3.54,2.73-4,4.33a5,5,0,0,0,1.29,4.74,13.34,13.34,0,0,0,3.42,2.73,21.83,21.83,0,0,0,6,2.44,21.37,21.37,0,0,0,8.21.45,21,21,0,0,0,7.85-2.7,12.7,12.7,0,0,0,3.73-3.11,4.93,4.93,0,0,0,1.14-3.4A.3.3,0,0,0,139.23,84.54Zm-21.37,1.57c-.12.07-.22.09-.3,0a.13.13,0,0,1-.07-.06,2.9,2.9,0,0,1-.64-.62c-.88-1-.61-2,.79-2.76a5.87,5.87,0,0,1,2.4-.79,6.18,6.18,0,0,1,2.58.29,5.24,5.24,0,0,1,1,.37c.11.06.11.13,0,.2Z"/><path class="cls-1" d="M182.68,59.28a.82.82,0,0,0-.48-.08l-6.7-.26A.8.8,0,0,0,175,59a.27.27,0,0,0-.15.33c.13,1.21-.64,2.3-2.35,3.29a8.58,8.58,0,0,1-2.91,1.08,8.78,8.78,0,0,1-2.84.05,11.69,11.69,0,0,1-1.59-.45l-.1-.1.1-.14,11.4-6.62.94-.55c.33-.19.33-.38,0-.58s-.71-.44-1.05-.63a20.62,20.62,0,0,0-2.29-1.16A24.11,24.11,0,0,0,168.85,52l-1-.15a22.62,22.62,0,0,0-6.63.13,17.52,17.52,0,0,0-5.93,2.1q-3.33,1.94-4,4.33a5,5,0,0,0,1.28,4.75A13.24,13.24,0,0,0,156,65.89a22.22,22.22,0,0,0,5.93,2.45,21.78,21.78,0,0,0,8.21.45A21.1,21.1,0,0,0,178,66.08,12.65,12.65,0,0,0,181.72,63a5,5,0,0,0,1.12-3.4A.32.32,0,0,0,182.68,59.28Zm-21.37,1.58c-.13.08-.23.09-.31,0l-.07-.06a3.68,3.68,0,0,1-.64-.61c-.88-1-.6-2,.8-2.78a5.9,5.9,0,0,1,2.41-.78,6.4,6.4,0,0,1,2.58.29,4.38,4.38,0,0,1,1,.37c.11.07.12.13,0,.19Z"/><path class="cls-1" d="M223.31,8.7a2.51,2.51,0,0,1,1.53,2c0,.77-.49,1.45-1.51,2a7.45,7.45,0,0,1-7.06,0c-1.06-.61-1.58-1.29-1.57-2.06s.52-1.43,1.55-2a7.37,7.37,0,0,1,7.06,0Z"/><path class="cls-1" d="M273.93,9.38,260,1.36A11.15,11.15,0,0,0,255.22,0a19.88,19.88,0,0,0-6,.53,21.6,21.6,0,0,0-5.81,2.32,12.45,12.45,0,0,0-3.8,3.17,4.48,4.48,0,0,0-1,3.25A3.93,3.93,0,0,0,240.45,12a1,1,0,0,0,.85-.07L247.9,9a.34.34,0,0,0,.17-.57.86.86,0,0,1,0-1.06,3.33,3.33,0,0,1,1.32-1.19A5.71,5.71,0,0,1,252,5.35a4.34,4.34,0,0,1,2.46.58l.77.44c.14.08.15.16,0,.24l-3.92,2.28c-2.75,1.59-4.29,3.14-4.59,4.64s.59,2.84,2.69,4.06a11.14,11.14,0,0,0,6.42,1.48A15.34,15.34,0,0,0,262.52,17c2.48-1.44,3.48-2.9,3-4.37-.06-.09-.05-.16,0-.18a.36.36,0,0,1,.27.06l1.43.83a1,1,0,0,0,.49.11,1,1,0,0,0,.48-.12l5.75-3.34a.33.33,0,0,0,.2-.28A.39.39,0,0,0,273.93,9.38ZM259.66,13a4.85,4.85,0,0,1-2.24.68,3.57,3.57,0,0,1-2-.47c-.71-.4-.94-.87-.75-1.4a4,4,0,0,1,1.84-1.67l2.43-1.42a.35.35,0,0,1,.39,0l1,.57c.87.5,1.24,1.09,1.12,1.78A3.2,3.2,0,0,1,259.66,13Z"/><path class="cls-1" d="M249.29,24.1a.35.35,0,0,1-.21.28l-5.74,3.34a.92.92,0,0,1-.48.12.94.94,0,0,1-.49-.12L222.29,16.13a.34.34,0,0,1-.2-.29c0-.1.07-.2.2-.27L228,12.23a.9.9,0,0,1,.48-.12.91.91,0,0,1,.49.12l20.08,11.59A.33.33,0,0,1,249.29,24.1Z"/><path class="cls-1" d="M223.18,23.35c.3.17.33.36.1.56l-4.77,3.76-.09,0a1.08,1.08,0,0,1-.89.05l-.44-.17c-.28-.09-.52-.17-.75-.23a6.88,6.88,0,0,0-2.36-.08,5.8,5.8,0,0,0-2.24.73c-1.44.84-1.75,1.75-.92,2.76a9.2,9.2,0,0,0,2.64,2,16.35,16.35,0,0,0,3.47,1.53,6.28,6.28,0,0,0,4.94-.48,2.52,2.52,0,0,0,1.28-1.37,1.6,1.6,0,0,0-.49-1.54.67.67,0,0,0-.19-.16l-.13-.12c-.25-.24-.19-.42.15-.56l6.57-2.78a.93.93,0,0,1,.85,0,4,4,0,0,1,1.1.92,4.26,4.26,0,0,1,.94,4.59,9.27,9.27,0,0,1-4.26,4.31,18.94,18.94,0,0,1-7.48,2.41,22.26,22.26,0,0,1-13.59-2.85,13,13,0,0,1-3.91-3.16,4.42,4.42,0,0,1-.94-4.62A9.11,9.11,0,0,1,206,24.66a21,21,0,0,1,15.24-2A10.53,10.53,0,0,1,223.18,23.35Z"/><path class="cls-1" d="M211,46a.38.38,0,0,1,.21.28.36.36,0,0,1-.21.28l-5.74,3.34a1,1,0,0,1-.49.12.9.9,0,0,1-.48-.12L192.34,43a6.57,6.57,0,0,0-3.06-.86,5.13,5.13,0,0,0-2.87.63c-.84.49-1.23,1-1.15,1.68s.57,1.23,1.53,1.78l11.93,6.89a.36.36,0,0,1,.21.28.35.35,0,0,1-.21.28L193,57a1.07,1.07,0,0,1-.49.12A1.17,1.17,0,0,1,192,57L171.93,45.4a.35.35,0,0,1-.21-.28c0-.12.07-.2.21-.28l5.75-3.34a.88.88,0,0,1,.48-.12.9.9,0,0,1,.48.12l1.51.87a.35.35,0,0,0,.26.06l0-.14q-.87-2.26,2.45-4.2a14.19,14.19,0,0,1,7.19-1.85,14.67,14.67,0,0,1,7.5,2Z"/></g></g></svg>