<svg xmlns="http://www.w3.org/2000/svg" viewBox="0 0 177.85 102.73"><defs><style>.cls-1{fill:#b7163c;}.cls-2{isolation:isolate;}</style></defs><title>Simony</title><g id="Layer_2" data-name="Layer 2"><g id="Layer_5" data-name="Layer 5"><path class="cls-1" d="M105.82,55.14c-.45-1.61-1.83-3.08-4.16-4.43a19.07,19.07,0,0,0-7.75-2.45,20.62,20.62,0,0,0-5.61.22,18.83,18.83,0,0,0-2.64.65,20.06,20.06,0,0,0-4.33,1.93,13.16,13.16,0,0,0-3.07,2.33c-1.6,1.57-2.19,3.2-1.79,4.89s1.8,3.23,4.18,4.6a18.37,18.37,0,0,0,8,2.4,21.19,21.19,0,0,0,8.56-1.12,21.56,21.56,0,0,0,3.9-1.76,13.26,13.26,0,0,0,3.22-2.52,6.47,6.47,0,0,0,1.07-1.51A4.27,4.27,0,0,0,105.82,55.14Zm-9.37,2a10.09,10.09,0,0,1-2,1.49A15,15,0,0,1,92,59.79a9.69,9.69,0,0,1-3.1.52,5.33,5.33,0,0,1-2.63-.68A2,2,0,0,1,85,58.1a2.37,2.37,0,0,1,.9-1.78,10.65,10.65,0,0,1,2-1.44,13.45,13.45,0,0,1,2.52-1.19,6.61,6.61,0,0,1,5.57.25,2.12,2.12,0,0,1,1.23,1.48A2.15,2.15,0,0,1,96.45,57.14Z"/><g class="cls-2"><path class="cls-1" d="M33.39,3a12.8,12.8,0,0,1,4.39,3.81,4.6,4.6,0,0,1,.71,4,6.53,6.53,0,0,1-3.22,3.47l-.55.32a.89.89,0,0,1-.47.12.92.92,0,0,1-.48-.12l-5.5-3.18a.33.33,0,0,1-.2-.27.36.36,0,0,1,.19-.28l.28-.16a2.07,2.07,0,0,0,1.21-2.12c-.11-.89-.85-1.72-2.22-2.52a7.47,7.47,0,0,0-3.05-1,4.33,4.33,0,0,0-2.64.53A1.48,1.48,0,0,0,21,6.69a2.91,2.91,0,0,0,.66,1.62c.46.64,1.22,1.57,2.31,2.81a34.68,34.68,0,0,1,2.67,3.45,4.41,4.41,0,0,1,.61,3c-.16,1.15-1.1,2.22-2.83,3.23a14,14,0,0,1-5.72,1.8,19.61,19.61,0,0,1-6.51-.45,23.37,23.37,0,0,1-6.49-2.59A14.3,14.3,0,0,1,1,15.67a4.3,4.3,0,0,1-.77-3.91A6.58,6.58,0,0,1,3.37,8.37l.75-.43a1,1,0,0,1,.47-.11,1,1,0,0,1,.48.11l5.5,3.18a.29.29,0,0,1,0,.55l-.48.27A1.73,1.73,0,0,0,9.15,14c.23.88,1.08,1.75,2.56,2.6A7.08,7.08,0,0,0,15,17.66a4.72,4.72,0,0,0,2.57-.53c.52-.3.78-.65.78-1a2.18,2.18,0,0,0-.5-1.25c-.33-.45-.88-1.13-1.65-2a1.74,1.74,0,0,0-.3-.37,4.09,4.09,0,0,1-.3-.33A22.41,22.41,0,0,1,13,8.5a4.79,4.79,0,0,1-.57-3.43q.36-1.77,2.88-3.24A13.86,13.86,0,0,1,20.82.09a19.72,19.72,0,0,1,6.4.44A22.21,22.21,0,0,1,33.39,3Z"/><path class="cls-1" d="M48.85,20.59a.33.33,0,0,1,.2.27.35.35,0,0,1-.19.28L29.45,32.41a.89.89,0,0,1-.47.12.92.92,0,0,1-.48-.12l-5.62-3.24a.35.35,0,0,1-.2-.28.33.33,0,0,1,.19-.27L42.28,17.34a1,1,0,0,1,.47-.11,1,1,0,0,1,.48.11Z"/><path class="cls-1" d="M79.55,38c2.06,1.19,3,2.49,3,3.89s-1.29,2.77-3.57,4.09l-13,7.55a1,1,0,0,1-.48.11,1,1,0,0,1-.47-.11L59.4,50.25a.33.33,0,0,1-.19-.27.3.3,0,0,1,.19-.27L71,43c.9-.52,1.4-1.07,1.49-1.67s-.23-1.11-1-1.55a4.94,4.94,0,0,0-2.71-.61,6.3,6.3,0,0,0-2.94.86L54.25,46.73a.89.89,0,0,1-.47.12.92.92,0,0,1-.48-.12l-5.62-3.25a.33.33,0,0,1-.2-.27.33.33,0,0,1,.19-.27l11.58-6.73a2.55,2.55,0,0,0,1.45-1.69c.07-.61-.28-1.14-1-1.58a5,5,0,0,0-2.45-.64,6.15,6.15,0,0,0-2.64.53L42.41,39.89a.92.92,0,0,1-.48.12.89.89,0,0,1-.47-.12l-5.63-3.24a.35.35,0,0,1-.2-.28.33.33,0,0,1,.2-.27l19.4-11.28a1,1,0,0,1,.48-.11,1,1,0,0,1,.47.11l5.63,3.25a.33.33,0,0,1,.2.27.34.34,0,0,1-.2.28l-1.77,1c-.11.06-.14.11-.1.14a.39.39,0,0,0,.3,0,11.51,11.51,0,0,1,7.67,1.41,6.2,6.2,0,0,1,2.62,2.52,2.81,2.81,0,0,1-.23,2.79c0,.06,0,.11,0,.13a.54.54,0,0,0,.28,0,13.49,13.49,0,0,1,4.8-.15A11.82,11.82,0,0,1,79.55,38Z"/></g><path class="cls-1" d="M47.89,17.94c-1-.58-1.51-1.25-1.51-2s.49-1.42,1.49-2a6.67,6.67,0,0,1,3.45-.89,6.83,6.83,0,0,1,3.42.89c1,.57,1.52,1.24,1.53,2s-.49,1.41-1.51,2a7.37,7.37,0,0,1-6.87,0Z"/><path class="cls-1" d="M128.84,66.4c2.06,1.19,3.1,2.55,3.12,4.06s-1.08,2.92-3.31,4.22l-13,7.53a1,1,0,0,1-.48.11,1,1,0,0,1-.47-.11L109.12,79a.35.35,0,0,1-.2-.27.34.34,0,0,1,.2-.28l11.53-6.7A2.5,2.5,0,0,0,122.1,70c.08-.62-.28-1.16-1.07-1.62a5.18,5.18,0,0,0-2.83-.65,6.09,6.09,0,0,0-3,.86l-11.54,6.7a1.06,1.06,0,0,1-.94,0L97.12,72a.33.33,0,0,1-.2-.27.34.34,0,0,1,.2-.28l19.4-11.28a1,1,0,0,1,.47-.11,1,1,0,0,1,.48.11l5.62,3.25a.34.34,0,0,1,.2.28.31.31,0,0,1-.19.27l-1.46.85c-.11.06-.15.11-.12.13l.24,0A11.05,11.05,0,0,1,128.84,66.4Z"/><path class="cls-1" d="M158.67,84c.16.09.23.19.22.28s-.14.19-.38.27l-26.92,7.89A37.69,37.69,0,0,1,125,93.78a14.75,14.75,0,0,1-5.41-.52,29.78,29.78,0,0,1-6.65-3l-.28-.16-.06-.19a.63.63,0,0,1,.26-.25l4.4-2.56a.86.86,0,0,1,.91,0,16.35,16.35,0,0,0,4.12,1.83,5.16,5.16,0,0,0,3.24-.32.45.45,0,0,0,.23-.14l13.34-15.14.16-.14a.76.76,0,0,1,.79,0l6,3.45c.27.16.31.33.12.53l-8.91,8.35c-.08.08-.09.13,0,.16s.14,0,.27,0l14.39-5.19a1.1,1.1,0,0,1,.91.07Z"/><path class="cls-1" d="M169.47,88.13c-1-.58-1.5-1.24-1.51-2s.5-1.41,1.49-2a6.66,6.66,0,0,1,3.45-.88,6.82,6.82,0,0,1,3.42.88q1.5.87,1.53,2c0,.74-.48,1.41-1.51,2a7.29,7.29,0,0,1-6.87,0Z"/><path class="cls-1" d="M170.44,90.79a.35.35,0,0,1,.2.27.33.33,0,0,1-.2.27L151,102.61a.92.92,0,0,1-.48.12,1,1,0,0,1-.47-.12l-5.63-3.25c-.14-.08-.2-.17-.2-.27s.07-.2.2-.28l19.4-11.27a.9.9,0,0,1,.48-.12.94.94,0,0,1,.47.12Z"/></g></g></svg>