<svg xmlns="http://www.w3.org/2000/svg" viewBox="0 0 180.69 306.59"><defs><style>.cls-1{fill:#d41a46;}.cls-2{fill:#9d232e;}.cls-3{fill:#b91f3a;}.cls-4{fill:#fff;}</style></defs><title>X</title><g id="Layer_2" data-name="Layer 2"><g id="Layer_5" data-name="Layer 5"><polygon class="cls-1" points="112.93 104.31 112.93 306.59 79.05 287.04 79.05 58.69 102.77 90.61 112.93 104.31"/><polygon class="cls-2" points="180.69 65.2 180.69 265.79 158.1 278.82 158.1 78.22 180.69 65.2"/><polygon class="cls-2" points="135.52 91.28 135.52 290.45 112.93 303.48 112.93 104.31 124.52 97.61 126.48 96.48 135.52 91.28"/><polygon class="cls-3" points="158.1 78.22 158.1 278.18 135.06 291.43 135.29 117.48 135.52 91.28 118.58 68.44 119.18 68.59 158.1 78.22"/><polygon class="cls-1" points="62.11 35.87 45.17 31.7 45.17 13.06 62.11 35.87"/><polygon class="cls-3" points="79.05 58.69 79.05 110.84 79.05 259.12 0 213.48 0 39.15 0.04 39.11 55.34 52.81 70.51 56.58 79.05 58.69"/><polygon class="cls-4" points="158.1 78.22 118.58 68.44 135.52 91.28 126.48 96.48 124.52 97.61 112.93 104.31 102.77 90.61 79.05 58.69 70.51 56.58 55.34 52.81 0.04 39.11 22.59 26.09 45.17 31.7 62.11 35.87 45.17 13.06 67.76 0 101.64 45.66 180.69 65.2 158.1 78.22"/></g></g></svg>